# 3ds Max Wavefront OBJ Exporter v0.97b - (c)2007 guruware
# File Created: 05.06.2013 12:54:35


#
# object newshield
#

v  0.00 -2.35 -0.00
v  -0.06 -1.13 0.48
v  -2.01 -1.42 -0.00
v  2.03 -1.48 -0.00
v  -1.71 1.19 -0.00
v  -0.07 0.87 0.48
v  0.00 2.46 -0.00
v  1.74 1.18 -0.00
# 8 vertices

vn 0.00 -2.35 -0.00
vn -0.06 -1.13 0.48
vn -2.01 -1.42 -0.00
vn 2.03 -1.48 -0.00
vn -1.71 1.19 -0.00
vn -0.07 0.87 0.48
vn 0.00 2.46 -0.00
vn 1.74 1.18 -0.00
# 8 vertex normals

vt 0.50 0.03
vt 0.48 0.27
vt 0.10 0.21
vt 0.89 0.20
vt 0.16 0.72
vt 0.48 0.66
vt 0.50 0.97
vt 0.84 0.72
# 8 texture coords

f 1/1/1 2/2/2 3/3/3 
f 2/2/2 1/1/1 4/4/4 
f 3/3/3 2/2/2 5/5/5 
f 5/5/5 2/2/2 6/6/6 
f 6/6/6 7/7/7 5/5/5 
f 6/6/6 8/8/8 7/7/7 
f 2/2/2 8/8/8 6/6/6 
f 2/2/2 4/4/4 8/8/8 
# 8 faces

